<svg id="Layer_1" viewBox="0 0 24 24" xmlns="http://www.w3.org/2000/svg" data-name="Layer 1" style="max-width: 100%; max-height: 100%; width: auto; height: auto; transform: scale(1);"><path d="m8.08 18.92c-1.852-.148-3.498-.468-4.339-.651-.243-1.178-.74-3.992-.74-7.269s.497-6.09.74-7.268c1.123-.245 3.683-.732 6.26-.732.376 0 .724.013 1.052.035-.055 2.833.259 4.333.273 4.399.087.396.405.7.804.77.086.015 1.719.297 3.761.297.309 0 .641-.026.965-.041.022.206.053.412.069.62.044.55.514.962 1.077.917.55-.044.961-.526.917-1.077-.053-.656-.128-1.296-.232-1.959-.034-.218-.139-.418-.298-.57l-5.15-4.898c-.137-.13-.307-.219-.492-.256-.794-.16-1.692-.237-2.747-.237-3.684 0-7.201.894-7.349.932-.355.091-.632.37-.721.726-.038.152-.93 3.772-.93 8.343s.892 8.191.93 8.343c.089.356.366.634.721.726.032.012 2.598.653 5.35.848.516 0 .954-.397.996-.92.044-.55-.366-1.032-.917-1.076zm7.518-12.422c-.984-.015-1.851-.096-2.42-.165-.058-.487-.117-1.258-.131-2.261l2.55 2.426zm6.483 5.354c-1.059-1.117-3.168-1.128-4.223-.013l-5.42 5.418c-.861.868-1.365 2.026-1.419 3.263l-.062 1.438c-.037.569.475 1.08 1.043 1.042l1.429-.063c1.232-.055 2.386-.564 3.247-1.432l5.417-5.417c1.157-1.165 1.152-3.065-.011-4.236zm-1.405 2.824-5.417 5.417c-.508.512-1.19.812-1.918.845l-.339.015.015-.347c.033-.738.331-1.427.838-1.938l5.42-5.418c.323-.342 1.099-.325 1.408.035.363.389.361 1.021-.008 1.392zm-7.246-1.307c.204-.513-.048-1.095-.561-1.298-.516-.204-1.095.047-1.298.561-.36.908-.888 1.369-1.57 1.369-.258 0-.505-.058-.74-.162 1.008-1.194 1.74-2.664 1.74-3.838 0-1.991-1.009-3-3-3s-3 1.009-3 3c0 1.029.451 2.552 1.315 3.805-.184.107-.36.182-.521.216-.541.113-.887.644-.773 1.184.111.544.657.888 1.184.773.494-.104 1.015-.358 1.522-.714.649.453 1.408.736 2.272.736 1.516 0 2.767-.959 3.43-2.631zm-5.626-.929c-.505-.813-.803-1.775-.803-2.439 0-.878.122-1 1-1s1 .122 1 1c0 .64-.524 1.61-1.197 2.439z" data-element-index="0" style="cursor: pointer; fill: rgb(255, 213, 98);" fill="#ffd562"></path></svg>
