<svg id="Layer_1" viewBox="0 0 24 24" xmlns="http://www.w3.org/2000/svg" data-name="Layer 1" style="max-width: 100%; max-height: 100%; width: auto; height: auto; transform: scale(1);">
  <path d="m8 7c0-.714.571-1 2-1s2 .286 2 1-.571 1-2 1-2-.286-2-1zm14.97 2c0 8.001-.467 10.579-.487 10.685-.03.161-.1.312-.201.44-2.297 2.87-7.096 2.875-10.281 2.875-5.666 0-8.826-1.1-10.212-3.564-.051-.091-.087-.189-.108-.291-.027-.137-.68-3.451-.68-12.145-.001-5.287 4.549-6 8.999-6s9 .713 9 6v3.058c.983-.352 1.745-.832 2.071-1.498.204-.417.67-.64 1.124-.534.453.105.774.509.774.974zm-19.97-2c0 2.533 1.146 4 7 4s7-1.467 7-4-1.146-4-7-4-7 1.467-7 4zm17.955 4.344c-2.921 1.656-7.942 1.656-10.955 1.656-2.581 0-5.19-.247-6.931-1.48.139 4.336.45 6.502.544 7.072.459.726 1.258 1.271 2.387 1.664v-3.256c0-.553.447-1 1-1s1 .447 1 1v3.733c.872.135 1.872.216 3 .245v-3.479c0-.553.447-1 1-1s1 .447 1 1v3.496c.948-.009 1.983-.05 3-.167v-3.83c0-.553.447-1 1-1s1 .447 1 1v3.454c1.021-.286 1.929-.714 2.554-1.387.095-.697.339-2.939.401-7.722z" data-element-index="0" style="cursor: pointer; fill: rgb(255, 213, 98);" fill="#ffd562"></path>
</svg>
